HIERARCHY
ROOT Hips
{
	OFFSET 0.00000 0.00000 0.00000
	CHANNELS 6 Xposition Yposition Zposition Zrotation Yrotation Xrotation 
	JOINT LHipJoint
	{
		OFFSET 0 0 0
		CHANNELS 3 Zrotation Yrotation Xrotation
		JOINT LeftUpLeg
		{
			OFFSET 1.92384 -1.64427 0.83032
			CHANNELS 3 Zrotation Yrotation Xrotation
			JOINT LeftLeg
			{
				OFFSET 2.52872 -6.94761 0.00000
				CHANNELS 3 Zrotation Yrotation Xrotation
				JOINT LeftFoot
				{
					OFFSET 2.51827 -6.91890 0.00000
					CHANNELS 3 Zrotation Yrotation Xrotation
					JOINT LeftToeBase
					{
						OFFSET 0.22757 -0.62524 2.06528
						CHANNELS 3 Zrotation Yrotation Xrotation
						End Site
						{
							OFFSET 0.00000 -0.00000 1.08218
						}
					}
				}
			}
		}
	}
	JOINT RHipJoint
	{
		OFFSET 0 0 0
		CHANNELS 3 Zrotation Yrotation Xrotation
		JOINT RightUpLeg
		{
			OFFSET -2.09517 -1.64427 0.83032
			CHANNELS 3 Zrotation Yrotation Xrotation
			JOINT RightLeg
			{
				OFFSET -2.55173 -7.01082 0.00000
				CHANNELS 3 Zrotation Yrotation Xrotation
				JOINT RightFoot
				{
					OFFSET -2.50265 -6.87598 0.00000
					CHANNELS 3 Zrotation Yrotation Xrotation
					JOINT RightToeBase
					{
						OFFSET -0.22612 -0.62126 1.98677
						CHANNELS 3 Zrotation Yrotation Xrotation
						End Site
						{
							OFFSET -0.00000 -0.00000 1.04433
						}
					}
				}
			}
		}
	}
	JOINT LowerBack
	{
		OFFSET 0 0 0
		CHANNELS 3 Zrotation Yrotation Xrotation
		JOINT Spine
		{
			OFFSET 0.02839 1.68926 0.31690
			CHANNELS 3 Zrotation Yrotation Xrotation
			JOINT Spine1
			{
				OFFSET -0.01522 1.70183 0.21192
				CHANNELS 3 Zrotation Yrotation Xrotation
				JOINT Neck
				{
					OFFSET 0 0 0
					CHANNELS 3 Zrotation Yrotation Xrotation
					JOINT Neck1
					{
						OFFSET -0.04523 1.88988 0.10630
						CHANNELS 3 Zrotation Yrotation Xrotation
						JOINT Head
						{
							OFFSET 0.05172 1.78070 -0.56858
							CHANNELS 3 Zrotation Yrotation Xrotation
							End Site
							{
								OFFSET 0.01532 1.90392 -0.20434
							}
						}
					}
				}
				JOINT LeftShoulder
				{
					OFFSET 0 0 0
					CHANNELS 3 Zrotation Yrotation Xrotation
					JOINT LeftArm
					{
						OFFSET 3.25522 0.75486 0.22086
						CHANNELS 3 Zrotation Yrotation Xrotation
						JOINT LeftForeArm
						{
							OFFSET 4.85645 -0.00000 0.00000
							CHANNELS 3 Zrotation Yrotation Xrotation
							JOINT LeftHand
							{
								OFFSET 2.79874 -0.00000 0.00000
								CHANNELS 3 Zrotation Yrotation Xrotation
								JOINT LeftFingerBase
								{
									OFFSET 0 0 0
									CHANNELS 3 Zrotation Yrotation Xrotation
									JOINT LeftHandIndex1
									{
										OFFSET 0.57340 -0.00000 0.00000
										CHANNELS 3 Zrotation Yrotation Xrotation
										End Site
										{
											OFFSET 0.46229 -0.00000 0.00000
										}
									}
								}
								JOINT LThumb
								{
									OFFSET 0 0 0
									CHANNELS 3 Zrotation Yrotation Xrotation
									End Site
									{
										OFFSET 0.46935 -0.00000 0.46935
									}
								}
							}
						}
					}
				}
				JOINT RightShoulder
				{
					OFFSET 0 0 0
					CHANNELS 3 Zrotation Yrotation Xrotation
					JOINT RightArm
					{
						OFFSET -3.29079 0.52751 0.36356
						CHANNELS 3 Zrotation Yrotation Xrotation
						JOINT RightForeArm
						{
							OFFSET -4.67018 -0.00000 0.00000
							CHANNELS 3 Zrotation Yrotation Xrotation
							JOINT RightHand
							{
								OFFSET -2.65534 -0.00000 0.00000
								CHANNELS 3 Zrotation Yrotation Xrotation
								JOINT RightFingerBase
								{
									OFFSET 0 0 0
									CHANNELS 3 Zrotation Yrotation Xrotation
									JOINT RightHandIndex1
									{
										OFFSET -0.59407 -0.00000 0.00000
										CHANNELS 3 Zrotation Yrotation Xrotation
										End Site
										{
											OFFSET -0.47895 -0.00000 0.00000
										}
									}
								}
								JOINT RThumb
								{
									OFFSET 0 0 0
									CHANNELS 3 Zrotation Yrotation Xrotation
									End Site
									{
										OFFSET -0.48627 -0.00000 0.48627
									}
								}
							}
						}
					}
				}
			}
		}
	}
}
MOTION
Frames: 15
Frame Time: .0083333
-3.6949 3.6091 16.9732 -14.4906 0.4848 -9.4785 0.0000 0.0000 0.0000 -14.6692 -18.4741 -119.9189 18.4989 19.9459 85.6073 -0.0661 7.3748 3.4921 0.4623 4.3614 12.0956 0.0000 0.0000 0.0000 11.2429 -8.2317 -132.6379 -36.2630 -11.8019 144.9652 0.2130 8.1528 2.8153 -0.0700 -1.7071 4.6969 0.7014 -1.0307 -3.0128 6.6881 -1.1403 -6.1475 6.6248 -0.4186 -4.5779 -6.1926 -4.3122 -15.9431 2.1401 -5.8317 45.1480 0.9427 -3.0843 21.1160 -0.0000 -0.0000 0.0000 -89.4827 42.7617 33.9267 19.5018 -30.0374 -5.2797 -0.0000 0.0000 -25.2042 79.3096 49.5658 76.0707 -7.1250 0.0000 -0.0000 155.4296 -68.2704 -165.9513 -0.0000 -0.0000 0.0000 89.0991 -55.7413 26.2200 -18.7786 29.1426 -4.9225 0.0000 -0.0000 -3.1215 -69.8941 -46.9295 63.3843 7.1250 -0.0000 -0.0000 -140.2373 75.7566 -150.2838
-3.7065 3.6065 16.9762 -14.3782 0.3657 -9.5512 0.0000 0.0000 0.0000 -14.5355 -18.3899 -119.0900 17.8264 19.8863 83.6331 -0.0635 7.2563 3.4480 0.4968 4.5188 12.5411 0.0000 0.0000 0.0000 11.3377 -8.1406 -132.6724 -36.2704 -11.7916 145.0014 0.2101 8.0975 2.8712 -0.0776 -1.7969 4.9447 0.7515 -1.0321 -3.1198 6.7045 -1.1456 -6.1643 6.6114 -0.4236 -4.5352 -6.1341 -4.3115 -15.9150 2.1692 -5.8806 45.1982 0.9372 -3.0895 21.1461 0.0000 -0.0000 0.0000 -89.4469 42.8685 34.0696 19.5503 -30.0967 -5.3040 -0.0000 0.0000 -25.3770 79.2166 49.5527 75.9490 -7.1250 0.0000 -0.0000 155.3504 -68.3425 -165.8642 0.0000 -0.0000 0.0000 88.8269 -55.9209 26.8132 -18.9373 29.3408 -5.0001 0.0000 -0.0000 -3.3833 -70.5187 -47.0906 64.2203 7.1250 -0.0000 -0.0000 -141.5694 75.2858 -151.6960
-3.7182 3.6042 16.9795 -14.2609 0.2417 -9.6191 0.0000 0.0000 0.0000 -14.4021 -18.3065 -118.2531 17.1612 19.8057 81.6741 -0.0640 7.1788 3.3561 0.5266 4.6503 12.9137 0.0000 0.0000 0.0000 11.4254 -8.0409 -132.7100 -36.2782 -11.7806 145.0397 0.2071 8.0399 2.9268 -0.0849 -1.8795 5.1728 0.8048 -1.0194 -3.2246 6.7120 -1.1321 -6.1862 6.5868 -0.4193 -4.5013 -6.0891 -4.3184 -15.8670 2.2077 -5.9422 45.2472 0.9368 -3.1008 21.1717 0.0000 0.0000 0.0000 -89.3795 42.9692 34.2431 19.5852 -30.1393 -5.3215 -0.0000 0.0000 -25.5341 79.0742 49.5364 75.7631 -7.1250 0.0000 -0.0000 155.2337 -68.4545 -165.7324 0.0000 0.0000 0.0000 88.6954 -56.1170 27.1367 -19.0915 29.5322 -5.0759 0.0000 -0.0000 -3.5174 -70.9957 -47.3057 64.8923 7.1250 -0.0000 -0.0000 -142.8634 74.9033 -152.9887
-3.7299 3.6021 16.9825 -14.1456 0.1141 -9.6885 0.0000 0.0000 0.0000 -14.2607 -18.2228 -117.4004 16.5020 19.7041 79.7238 -0.0671 7.1545 3.2381 0.5515 4.7574 13.2180 0.0000 0.0000 0.0000 11.5138 -7.9335 -132.7372 -36.2853 -11.7708 145.0740 0.2042 7.9828 2.9767 -0.0919 -1.9547 5.3804 0.8633 -0.9949 -3.3168 6.7141 -1.1023 -6.2093 6.5539 -0.4070 -4.4777 -6.0502 -4.3312 -15.8107 2.2498 -6.0128 45.2965 0.9375 -3.1161 21.1965 0.0000 -0.0000 0.0000 -89.2913 43.0592 34.4296 19.6091 -30.1685 -5.3335 -0.0000 0.0000 -25.6678 78.9460 49.5370 75.5991 -7.1250 0.0000 -0.0000 155.1622 -68.5515 -165.6355 0.0000 -0.0000 0.0000 88.6782 -56.3275 27.2641 -19.2402 29.7161 -5.1494 0.0000 -0.0000 -3.5849 -71.3657 -47.4049 65.3893 7.1250 -0.0000 -0.0000 -143.5945 74.6190 -153.7595
-3.7403 3.6005 16.9846 -13.9881 0.0037 -9.7504 0.0000 0.0000 0.0000 -14.1688 -18.1638 -116.5212 15.8470 19.5814 77.7755 -0.0728 7.1799 3.0902 0.5672 4.8236 13.4062 0.0000 0.0000 0.0000 11.5728 -7.8768 -132.7945 -36.2922 -11.7610 145.1083 0.2028 7.9562 3.0559 -0.0987 -2.0260 5.5776 0.8923 -0.9669 -3.4007 6.6979 -1.0680 -6.2333 6.5184 -0.3914 -4.4599 -6.0055 -4.3451 -15.7647 2.2857 -6.0836 45.3484 0.9337 -3.1310 21.2257 0.0000 -0.0000 0.0000 -89.2048 43.1388 34.5909 19.6317 -30.1960 -5.3449 -0.0000 0.0000 -25.7654 78.8309 49.5428 75.4530 -7.1250 0.0000 -0.0000 155.1096 -68.6373 -165.5562 0.0000 -0.0000 0.0000 88.7302 -56.5375 27.2635 -19.3797 29.8877 -5.2187 0.0000 -0.0000 -3.5913 -71.6241 -47.4128 65.7155 7.1250 -0.0000 -0.0000 -143.8896 74.4318 -154.1210
-3.7511 3.5992 16.9859 -13.8472 -0.1084 -9.8128 0.0000 0.0000 0.0000 -14.0524 -18.1045 -115.6315 15.1964 19.4376 75.8277 -0.0794 7.2581 2.9696 0.5528 4.7628 13.2331 0.0000 0.0000 0.0000 11.6366 -7.8001 -132.8367 -36.2974 -11.7537 145.1338 0.2008 7.9204 3.1231 -0.1043 -2.0824 5.7333 0.9227 -0.9355 -3.4652 6.6881 -1.0283 -6.2527 6.4895 -0.3730 -4.4487 -5.9561 -4.3608 -15.7406 2.3162 -6.1552 45.4052 0.9257 -3.1457 21.2651 0.0000 -0.0000 0.0000 -89.1298 43.2014 34.7195 19.6520 -30.2207 -5.3551 -0.0000 0.0000 -25.8361 78.7483 49.5519 75.3494 -7.1250 0.0000 -0.0000 155.0821 -68.6983 -165.5057 0.0000 -0.0000 0.0000 88.8112 -56.7369 27.2132 -19.5021 30.0378 -5.2798 0.0000 -0.0000 -3.5488 -71.7512 -47.2898 65.8325 7.1250 -0.0000 -0.0000 -143.6127 74.3652 -153.9594
-3.7609 3.5981 16.9864 -13.6679 -0.2093 -9.8516 0.0000 0.0000 0.0000 -13.9685 -18.0639 -114.7437 14.5492 19.2722 73.8751 -0.0866 7.3907 2.8904 0.5131 4.5912 12.7462 0.0000 0.0000 0.0000 11.6588 -7.7464 -132.9252 -36.3022 -11.7470 145.1573 0.2001 7.9082 3.2176 -0.1089 -2.1274 5.8578 0.9140 -0.9044 -3.5350 6.6682 -0.9893 -6.2752 6.4722 -0.3535 -4.4371 -5.9007 -4.3761 -15.7417 2.3390 -6.2236 45.4670 0.9126 -3.1585 21.3152 0.0000 -0.0000 0.0000 -89.0786 43.2528 34.7994 19.6739 -30.2474 -5.3661 -0.0000 0.0000 -25.8776 78.6390 49.5319 75.2054 -7.1250 0.0000 -0.0000 154.9757 -68.7851 -165.3927 0.0000 -0.0000 0.0000 88.8804 -56.9224 27.1860 -19.5989 30.1561 -5.3284 0.0000 -0.0000 -3.4574 -71.8016 -47.0513 65.8134 7.1250 -0.0000 -0.0000 -142.8690 74.3769 -153.3846
-3.7711 3.5970 16.9869 -13.5237 -0.3276 -9.8923 0.0000 0.0000 0.0000 -13.8267 -18.0081 -113.8601 13.9085 19.0861 71.9249 -0.0940 7.5753 2.8664 0.4452 4.2809 11.8683 0.0000 0.0000 0.0000 11.6996 -7.6500 -132.9834 -36.3048 -11.7433 145.1701 0.1990 7.8895 3.2914 -0.1120 -2.1576 5.9413 0.9231 -0.8695 -3.5976 6.6626 -0.9450 -6.2880 6.4600 -0.3320 -4.4202 -5.8406 -4.3923 -15.7682 2.3583 -6.2922 45.5302 0.8963 -3.1706 21.3741 0.0000 -0.0000 0.0000 -89.0494 43.2914 34.8248 19.6979 -30.2767 -5.3782 -0.0000 0.0000 -25.8989 78.4896 49.4942 75.0065 -7.1250 0.0000 -0.0000 154.8077 -68.9044 -165.2234 0.0000 -0.0000 0.0000 88.9196 -57.0837 27.2192 -19.6684 30.2407 -5.3633 0.0000 -0.0000 -3.3395 -71.8016 -46.7356 65.7027 7.1250 -0.0000 -0.0000 -141.8075 74.4365 -152.5274
-3.7816 3.5962 16.9876 -13.4120 -0.4607 -9.9333 0.0000 0.0000 0.0000 -13.6282 -17.9399 -112.9780 13.2683 18.8769 69.9568 -0.1016 7.8182 2.9157 0.3752 3.9340 10.8910 0.0000 0.0000 0.0000 11.7601 -7.5187 -133.0158 -36.3056 -11.7422 145.1740 0.1978 7.8705 3.3463 -0.1137 -2.1739 5.9865 0.9438 -0.8339 -3.6584 6.6721 -0.9000 -6.2926 6.4573 -0.3104 -4.3958 -5.7749 -4.4081 -15.8122 2.3729 -6.3591 45.5909 0.8763 -3.1812 21.4361 -0.0000 0.0000 0.0000 -89.0468 43.3241 34.7959 19.7262 -30.3111 -5.3925 -0.0000 0.0000 -25.8994 78.3226 49.4516 74.7838 -7.1250 0.0000 -0.0000 154.6150 -69.0396 -165.0290 -0.0000 0.0000 0.0000 88.9068 -57.2165 27.3294 -19.7294 30.3149 -5.3941 0.0000 -0.0000 -3.2751 -71.8340 -46.4811 65.6534 7.1250 -0.0000 -0.0000 -140.9808 74.4592 -151.8740
-3.7926 3.5954 16.9886 -13.3412 -0.6074 -9.9781 0.0000 0.0000 0.0000 -13.3566 -17.8566 -112.0973 12.6297 18.6444 67.9714 -0.1090 8.1085 3.0319 0.3166 3.6167 10.0008 0.0000 0.0000 0.0000 11.8523 -7.3533 -133.0155 -36.3046 -11.7436 145.1691 0.1944 7.8072 3.4012 -0.1217 -2.2490 6.1943 0.9827 -0.7986 -3.7116 6.6982 -0.8551 -6.2916 6.4621 -0.2893 -4.3698 -5.7071 -4.4235 -15.8649 2.3867 -6.4252 45.6472 0.8555 -3.1910 21.4975 0.0000 0.0000 0.0000 -89.0652 43.3544 34.7271 19.7526 -30.3431 -5.4058 -0.0000 0.0000 -25.8932 78.1130 49.3875 74.5021 -7.1250 0.0000 -0.0000 154.3485 -69.2101 -164.7677 0.0000 0.0000 0.0000 88.8390 -57.3215 27.5018 -19.8096 30.4122 -5.4346 0.0000 -0.0000 -3.3508 -72.1051 -46.5098 66.0077 7.1250 -0.0000 -0.0000 -141.3989 74.2584 -152.3510
-3.8039 3.5947 16.9894 -13.2974 -0.7628 -10.0264 0.0000 0.0000 0.0000 -12.9996 -17.7537 -111.2239 11.9845 18.3841 65.9396 -0.1141 8.4740 3.3090 0.2737 3.3651 9.2969 0.0000 0.0000 0.0000 11.9666 -7.1657 -132.9880 -36.3020 -11.7473 145.1564 0.1890 7.7064 3.4588 -0.1361 -2.3781 6.5518 1.0311 -0.7638 -3.7570 6.7326 -0.8105 -6.2873 6.4705 -0.2686 -4.3449 -5.6363 -4.4397 -15.9178 2.4039 -6.4954 45.6959 0.8349 -3.2013 21.5535 0.0000 -0.0000 0.0000 -89.0883 43.3868 34.6408 19.7781 -30.3741 -5.4187 -0.0000 0.0000 -25.8818 77.8802 49.3227 74.1903 -7.1250 0.0000 -0.0000 154.0632 -69.3980 -164.4828 0.0000 -0.0000 0.0000 88.7367 -57.4109 27.7358 -19.8922 30.5123 -5.4765 0.0000 -0.0000 -3.5085 -72.4052 -46.6396 66.4345 7.1250 -0.0000 -0.0000 -142.1768 74.0174 -153.1293
-3.8159 3.5939 16.9908 -13.2844 -0.9232 -10.0776 0.0000 0.0000 0.0000 -12.6132 -17.6566 -110.3433 11.3576 18.1057 63.9374 -0.1209 8.8398 3.5416 0.2477 3.2023 8.8425 0.0000 0.0000 0.0000 12.1110 -6.9610 -132.9395 -36.2996 -11.7506 145.1446 0.1816 7.5643 3.5120 -0.1583 -2.5637 7.0662 1.0888 -0.7316 -3.7921 6.7771 -0.7687 -6.2850 6.4847 -0.2493 -4.3277 -5.5688 -4.4550 -15.9548 2.4292 -6.5676 45.7346 0.8191 -3.2122 21.5981 0.0000 -0.0000 0.0000 -89.1135 43.4281 34.5528 19.7991 -30.3995 -5.4293 -0.0000 0.0000 -25.8701 77.6544 49.2629 73.8884 -7.1250 0.0000 -0.0000 153.7893 -69.5799 -164.2061 0.0000 -0.0000 0.0000 88.6043 -57.5000 28.0263 -19.9753 30.6126 -5.5188 0.0000 -0.0000 -3.7205 -72.7216 -46.8223 66.8995 7.1250 -0.0000 -0.0000 -143.1212 73.7528 -154.0421
-3.8271 3.5929 16.9935 -13.2309 -1.0586 -10.1090 0.0000 0.0000 0.0000 -12.2958 -17.6000 -109.4471 10.7539 17.8125 61.9798 -0.1297 9.1839 3.7004 0.2323 3.1018 8.5624 0.0000 0.0000 0.0000 12.2314 -6.8147 -132.9523 -36.3010 -11.7487 145.1515 0.1743 7.4267 3.5985 -0.1874 -2.7882 7.6896 1.1057 -0.7073 -3.8299 6.8055 -0.7370 -6.2946 6.5054 -0.2334 -4.3201 -5.5024 -4.4670 -15.9791 2.4613 -6.6373 45.7637 0.8079 -3.2216 21.6315 -0.0000 0.0000 0.0000 -89.1364 43.4788 34.4749 19.8171 -30.4214 -5.4384 -0.0000 0.0000 -25.8606 77.4588 49.2151 73.6277 -7.1250 0.0000 -0.0000 153.5584 -69.7367 -163.9692 -0.0000 0.0000 0.0000 88.4548 -57.5960 28.3619 -20.0448 30.6963 -5.5542 0.0000 -0.0000 -3.9064 -72.9747 -46.9510 67.2649 7.1250 -0.0000 -0.0000 -143.8010 73.5429 -154.7064
-3.8388 3.5915 16.9983 -13.1950 -1.1942 -10.1408 0.0000 0.0000 0.0000 -12.0019 -17.5636 -108.5247 10.1901 17.5154 60.1219 -0.1413 9.4709 3.7360 0.2086 2.9407 8.1136 0.0000 0.0000 0.0000 12.3733 -6.6712 -132.9644 -36.3050 -11.7430 145.1711 0.1671 7.2882 3.6648 -0.2183 -3.0079 8.3006 1.1308 -0.6843 -3.8533 6.8370 -0.7062 -6.3076 6.5251 -0.2180 -4.3243 -5.4418 -4.4786 -15.9893 2.5015 -6.7082 45.7833 0.8021 -3.2317 21.6542 0.0000 -0.0000 0.0000 -89.1467 43.5351 34.4251 19.8302 -30.4372 -5.4451 -0.0000 0.0000 -25.8581 77.3096 49.1869 73.4307 -7.1250 0.0000 -0.0000 153.3995 -69.8549 -163.7993 0.0000 -0.0000 0.0000 88.3083 -57.7023 28.7233 -20.0871 30.7471 -5.5758 0.0000 -0.0000 -4.0140 -73.0576 -46.8999 67.3535 7.1250 -0.0000 -0.0000 -143.7291 73.4914 -154.6910
-3.8495 3.5898 17.0042 -13.1237 -1.3190 -10.1591 0.0000 0.0000 0.0000 -11.7901 -17.5571 -107.5845 9.6634 17.2162 58.3575 -0.1561 9.6899 3.6230 0.1829 2.7544 7.5957 0.0000 0.0000 0.0000 12.4884 -6.5651 -133.0210 -36.3116 -11.7338 145.2034 0.1618 7.1872 3.7403 -0.2473 -3.1999 8.8358 1.1292 -0.6630 -3.8753 6.8546 -0.6771 -6.3299 6.5455 -0.2025 -4.3387 -5.3877 -4.4879 -15.9867 2.5446 -6.7740 45.7969 0.8005 -3.2409 21.6685 -0.0000 0.0000 0.0000 -89.1466 43.6023 34.4083 19.8417 -30.4512 -5.4509 -0.0000 0.0000 -25.8668 77.2168 49.1767 73.3100 -7.1250 0.0000 -0.0000 153.3171 -69.9269 -163.7046 -0.0000 0.0000 0.0000 88.1659 -57.8235 29.1030 -20.1010 30.7638 -5.5829 0.0000 -0.0000 -4.0242 -73.0249 -46.6698 67.2348 7.1250 -0.0000 -0.0000 -142.9688 73.5581 -154.0741
